%TF.GenerationSoftware,KiCad,Pcbnew,9.0.4*%
%TF.CreationDate,2025-11-21T16:36:12+01:00*%
%TF.ProjectId,dryer_filament,64727965-725f-4666-996c-616d656e742e,rev?*%
%TF.SameCoordinates,Original*%
%TF.FileFunction,Soldermask,Top*%
%TF.FilePolarity,Negative*%
%FSLAX46Y46*%
G04 Gerber Fmt 4.6, Leading zero omitted, Abs format (unit mm)*
G04 Created by KiCad (PCBNEW 9.0.4) date 2025-11-21 16:36:12*
%MOMM*%
%LPD*%
G01*
G04 APERTURE LIST*
G04 Aperture macros list*
%AMRoundRect*
0 Rectangle with rounded corners*
0 $1 Rounding radius*
0 $2 $3 $4 $5 $6 $7 $8 $9 X,Y pos of 4 corners*
0 Add a 4 corners polygon primitive as box body*
4,1,4,$2,$3,$4,$5,$6,$7,$8,$9,$2,$3,0*
0 Add four circle primitives for the rounded corners*
1,1,$1+$1,$2,$3*
1,1,$1+$1,$4,$5*
1,1,$1+$1,$6,$7*
1,1,$1+$1,$8,$9*
0 Add four rect primitives between the rounded corners*
20,1,$1+$1,$2,$3,$4,$5,0*
20,1,$1+$1,$4,$5,$6,$7,0*
20,1,$1+$1,$6,$7,$8,$9,0*
20,1,$1+$1,$8,$9,$2,$3,0*%
G04 Aperture macros list end*
%ADD10R,1.500000X0.900000*%
%ADD11R,0.900000X1.500000*%
%ADD12C,0.600000*%
%ADD13R,4.200000X4.200000*%
%ADD14C,3.080000*%
%ADD15RoundRect,0.150000X-0.150000X0.512500X-0.150000X-0.512500X0.150000X-0.512500X0.150000X0.512500X0*%
%ADD16RoundRect,0.250000X0.412500X0.650000X-0.412500X0.650000X-0.412500X-0.650000X0.412500X-0.650000X0*%
%ADD17RoundRect,0.250000X-0.475000X0.337500X-0.475000X-0.337500X0.475000X-0.337500X0.475000X0.337500X0*%
%ADD18RoundRect,0.250000X-0.350000X-0.450000X0.350000X-0.450000X0.350000X0.450000X-0.350000X0.450000X0*%
%ADD19RoundRect,0.150000X0.825000X0.150000X-0.825000X0.150000X-0.825000X-0.150000X0.825000X-0.150000X0*%
%ADD20R,2.600000X2.600000*%
%ADD21C,2.600000*%
%ADD22RoundRect,0.250000X0.450000X-0.350000X0.450000X0.350000X-0.450000X0.350000X-0.450000X-0.350000X0*%
%ADD23RoundRect,0.250000X0.350000X0.450000X-0.350000X0.450000X-0.350000X-0.450000X0.350000X-0.450000X0*%
%ADD24RoundRect,0.250000X0.337500X0.475000X-0.337500X0.475000X-0.337500X-0.475000X0.337500X-0.475000X0*%
%ADD25R,1.380000X0.450000*%
%ADD26R,1.300000X1.650000*%
%ADD27R,1.550000X1.425000*%
%ADD28R,1.900000X1.800000*%
%ADD29R,1.900000X1.000000*%
%ADD30RoundRect,0.250000X-0.337500X-0.475000X0.337500X-0.475000X0.337500X0.475000X-0.337500X0.475000X0*%
%ADD31R,1.600000X2.200000*%
%ADD32R,0.410000X0.820000*%
%ADD33R,4.061000X3.630000*%
%ADD34R,5.000000X0.510000*%
%ADD35R,0.595000X0.610000*%
%ADD36RoundRect,0.225000X-0.375000X0.225000X-0.375000X-0.225000X0.375000X-0.225000X0.375000X0.225000X0*%
%ADD37RoundRect,0.150000X-0.825000X-0.150000X0.825000X-0.150000X0.825000X0.150000X-0.825000X0.150000X0*%
%ADD38R,1.000000X1.250000*%
%ADD39RoundRect,0.250000X0.450000X-0.325000X0.450000X0.325000X-0.450000X0.325000X-0.450000X-0.325000X0*%
%ADD40C,1.530000*%
%ADD41RoundRect,0.250000X-0.450000X0.325000X-0.450000X-0.325000X0.450000X-0.325000X0.450000X0.325000X0*%
%ADD42RoundRect,0.250000X-0.650000X0.412500X-0.650000X-0.412500X0.650000X-0.412500X0.650000X0.412500X0*%
G04 APERTURE END LIST*
D10*
%TO.C,U1*%
X154570000Y-125340000D03*
X154570000Y-124070000D03*
X154570000Y-122800000D03*
X154570000Y-121530000D03*
X154570000Y-120260000D03*
X154570000Y-118990000D03*
X154570000Y-117720000D03*
X154570000Y-116450000D03*
X154570000Y-115180000D03*
X154570000Y-113910000D03*
X154570000Y-112640000D03*
X154570000Y-111370000D03*
X154570000Y-110100000D03*
X154570000Y-108830000D03*
D11*
X151530000Y-107580000D03*
X150260000Y-107580000D03*
X148990000Y-107580000D03*
X147720000Y-107580000D03*
X146450000Y-107580000D03*
X145180000Y-107580000D03*
X143910000Y-107580000D03*
X142640000Y-107580000D03*
X141370000Y-107580000D03*
X140100000Y-107580000D03*
D10*
X137070000Y-108830000D03*
X137070000Y-110100000D03*
X137070000Y-111370000D03*
X137070000Y-112640000D03*
X137070000Y-113910000D03*
X137070000Y-115180000D03*
X137070000Y-116450000D03*
X137070000Y-117720000D03*
X137070000Y-118990000D03*
X137070000Y-120260000D03*
X137070000Y-121530000D03*
X137070000Y-122800000D03*
X137070000Y-124070000D03*
X137070000Y-125340000D03*
D12*
X148025000Y-118762500D03*
X148025000Y-117237500D03*
X147262500Y-119525000D03*
X147262500Y-118000000D03*
X147262500Y-116475000D03*
X146500000Y-118762500D03*
D13*
X146500000Y-118000000D03*
D12*
X146500000Y-117237500D03*
X145737500Y-119525000D03*
X145737500Y-118000000D03*
X145737500Y-116475000D03*
X144975000Y-118762500D03*
X144975000Y-117237500D03*
%TD*%
D14*
%TO.C,*%
X162870000Y-122720000D03*
%TD*%
%TO.C,*%
X100330000Y-112190000D03*
%TD*%
%TO.C,*%
X100400000Y-71030000D03*
%TD*%
%TO.C,*%
X159870000Y-69630000D03*
%TD*%
D15*
%TO.C,U4*%
X113000000Y-109225000D03*
X112050000Y-109225000D03*
X111100000Y-109225000D03*
X111100000Y-111500000D03*
X112050000Y-111500000D03*
X113000000Y-111500000D03*
%TD*%
D16*
%TO.C,C13*%
X124062500Y-119510000D03*
X120937500Y-119510000D03*
%TD*%
D17*
%TO.C,C6*%
X116500000Y-96462500D03*
X116500000Y-98537500D03*
%TD*%
%TO.C,C18*%
X157500000Y-123962500D03*
X157500000Y-126037500D03*
%TD*%
D18*
%TO.C,R3*%
X121150000Y-89520000D03*
X123150000Y-89520000D03*
%TD*%
D19*
%TO.C,U5*%
X112475000Y-128445000D03*
X112475000Y-127175000D03*
X112475000Y-125905000D03*
X112475000Y-124635000D03*
X112475000Y-123365000D03*
X112475000Y-122095000D03*
X112475000Y-120825000D03*
X112475000Y-119555000D03*
X107525000Y-119555000D03*
X107525000Y-120825000D03*
X107525000Y-122095000D03*
X107525000Y-123365000D03*
X107525000Y-124635000D03*
X107525000Y-125905000D03*
X107525000Y-127175000D03*
X107525000Y-128445000D03*
%TD*%
D18*
%TO.C,R9*%
X108340000Y-104320000D03*
X110340000Y-104320000D03*
%TD*%
D20*
%TO.C,J4*%
X112500000Y-77500000D03*
D21*
X112500000Y-71500000D03*
X107800000Y-74500000D03*
%TD*%
D22*
%TO.C,R1*%
X121500000Y-99500000D03*
X121500000Y-97500000D03*
%TD*%
D23*
%TO.C,R13*%
X155500000Y-102000000D03*
X153500000Y-102000000D03*
%TD*%
D16*
%TO.C,C2*%
X136062500Y-97070000D03*
X132937500Y-97070000D03*
%TD*%
D24*
%TO.C,C17*%
X159537500Y-120500000D03*
X157462500Y-120500000D03*
%TD*%
D22*
%TO.C,R12*%
X133000000Y-122475000D03*
X133000000Y-120475000D03*
%TD*%
D23*
%TO.C,R7*%
X149500000Y-97000000D03*
X147500000Y-97000000D03*
%TD*%
D16*
%TO.C,C15*%
X124062500Y-113510000D03*
X120937500Y-113510000D03*
%TD*%
D24*
%TO.C,C19*%
X107537500Y-130500000D03*
X105462500Y-130500000D03*
%TD*%
D25*
%TO.C,J1*%
X102095000Y-121700000D03*
X102095000Y-122350000D03*
X102095000Y-123000000D03*
X102095000Y-123650000D03*
X102095000Y-124300000D03*
D26*
X99435000Y-119625000D03*
D27*
X102010000Y-120512500D03*
D28*
X99435000Y-121850000D03*
D29*
X99435000Y-124550000D03*
D27*
X102010000Y-125487500D03*
D26*
X99435000Y-126375000D03*
%TD*%
D16*
%TO.C,C7*%
X136032500Y-99550000D03*
X132907500Y-99550000D03*
%TD*%
D22*
%TO.C,R5*%
X159000000Y-84000000D03*
X159000000Y-82000000D03*
%TD*%
D24*
%TO.C,C4*%
X102037500Y-90000000D03*
X99962500Y-90000000D03*
%TD*%
D30*
%TO.C,C11*%
X113462500Y-107000000D03*
X115537500Y-107000000D03*
%TD*%
D31*
%TO.C,L1*%
X130300000Y-91500000D03*
X136700000Y-91500000D03*
%TD*%
D32*
%TO.C,Q1*%
X155095000Y-78516000D03*
X156365000Y-78516000D03*
X157635000Y-78516000D03*
X158905000Y-78516000D03*
D33*
X157000000Y-75000000D03*
D34*
X157000000Y-72930000D03*
D35*
X154672000Y-75801000D03*
X159328000Y-75801000D03*
%TD*%
D23*
%TO.C,R2*%
X123140000Y-91650000D03*
X121140000Y-91650000D03*
%TD*%
D16*
%TO.C,C8*%
X136022500Y-102070000D03*
X132897500Y-102070000D03*
%TD*%
%TO.C,C12*%
X124062500Y-122510000D03*
X120937500Y-122510000D03*
%TD*%
D36*
%TO.C,D3*%
X128000000Y-99350000D03*
X128000000Y-102650000D03*
%TD*%
D37*
%TO.C,U3*%
X145550000Y-83690000D03*
X145550000Y-84960000D03*
X145550000Y-86230000D03*
X145550000Y-87500000D03*
X150500000Y-87500000D03*
X150500000Y-86230000D03*
X150500000Y-84960000D03*
X150500000Y-83690000D03*
%TD*%
D38*
%TO.C,SW1*%
X158500000Y-92625000D03*
X158500000Y-100375000D03*
%TD*%
D39*
%TO.C,D2*%
X150500000Y-104075000D03*
X150500000Y-102025000D03*
%TD*%
D30*
%TO.C,C3*%
X125962500Y-92500000D03*
X128037500Y-92500000D03*
%TD*%
D15*
%TO.C,U2*%
X125950000Y-94862500D03*
X125000000Y-94862500D03*
X124050000Y-94862500D03*
X124050000Y-97137500D03*
X125000000Y-97137500D03*
X125950000Y-97137500D03*
%TD*%
D17*
%TO.C,C5*%
X104000000Y-96462500D03*
X104000000Y-98537500D03*
%TD*%
D22*
%TO.C,R8*%
X109000000Y-113500000D03*
X109000000Y-111500000D03*
%TD*%
D31*
%TO.C,L2*%
X106800000Y-96500000D03*
X113200000Y-96500000D03*
%TD*%
D30*
%TO.C,C20*%
X152462500Y-82000000D03*
X154537500Y-82000000D03*
%TD*%
D16*
%TO.C,C9*%
X136042500Y-104500000D03*
X132917500Y-104500000D03*
%TD*%
D17*
%TO.C,C16*%
X153525000Y-85057500D03*
X153525000Y-87132500D03*
%TD*%
D14*
%TO.C,J3*%
X145850000Y-71890000D03*
X138150000Y-71890000D03*
D40*
X136000000Y-79210000D03*
X136000000Y-76210000D03*
X139000000Y-79210000D03*
X139000000Y-76210000D03*
X142000000Y-79210000D03*
X142000000Y-76210000D03*
X145000000Y-79210000D03*
X145000000Y-76210000D03*
X148000000Y-79210000D03*
X148000000Y-76210000D03*
%TD*%
D41*
%TO.C,D1*%
X133000000Y-115950000D03*
X133000000Y-118000000D03*
%TD*%
D42*
%TO.C,C1*%
X125000000Y-99437500D03*
X125000000Y-102562500D03*
%TD*%
D22*
%TO.C,R11*%
X158500000Y-107500000D03*
X158500000Y-105500000D03*
%TD*%
D31*
%TO.C,L3*%
X117800000Y-108000000D03*
X124200000Y-108000000D03*
%TD*%
D16*
%TO.C,C14*%
X124062500Y-116510000D03*
X120937500Y-116510000D03*
%TD*%
D42*
%TO.C,C10*%
X112070000Y-113547500D03*
X112070000Y-116672500D03*
%TD*%
D32*
%TO.C,Q2*%
X141095000Y-97016000D03*
X142365000Y-97016000D03*
X143635000Y-97016000D03*
X144905000Y-97016000D03*
D33*
X143000000Y-93500000D03*
D34*
X143000000Y-91430000D03*
D35*
X140672000Y-94301000D03*
X145328000Y-94301000D03*
%TD*%
D36*
%TO.C,D4*%
X115000000Y-113850000D03*
X115000000Y-117150000D03*
%TD*%
D23*
%TO.C,R10*%
X110350000Y-106490000D03*
X108350000Y-106490000D03*
%TD*%
M02*
