M48
; DRILL file {KiCad 9.0.4} date 2025-11-21T16:36:05+0100
; FORMAT={-:-/ absolute / metric / decimal}
; #@! TF.CreationDate,2025-11-21T16:36:05+01:00
; #@! TF.GenerationSoftware,Kicad,Pcbnew,9.0.4
; #@! TF.FileFunction,MixedPlating,1,2
FMAT,2
METRIC
; #@! TA.AperFunction,Plated,PTH,ComponentDrill
T1C0.200
; #@! TA.AperFunction,Plated,PTH,ViaDrill
T2C0.300
; #@! TA.AperFunction,Plated,PTH,ComponentDrill
T3C1.020
; #@! TA.AperFunction,Plated,PTH,ComponentDrill
T4C1.600
; #@! TA.AperFunction,NonPlated,NPTH,ComponentDrill
T5C3.080
%
G90
G05
T1
X144.975Y-117.237
X144.975Y-118.762
X145.737Y-116.475
X145.737Y-118.0
X145.737Y-119.525
X146.5Y-117.237
X146.5Y-118.762
X147.262Y-116.475
X147.262Y-118.0
X147.262Y-119.525
X148.025Y-117.237
X148.025Y-118.762
T2
X114.405Y-121.5
X117.5Y-120.5
X135.0Y-120.5
X135.0Y-121.5
X135.0Y-122.5
X140.174Y-105.674
X153.0Y-124.07
X156.0Y-119.0
X156.75Y-85.99
X158.5Y-109.0
X159.5Y-123.962
X160.0Y-117.5
T3
X136.0Y-76.21
X136.0Y-79.21
X139.0Y-76.21
X139.0Y-79.21
X142.0Y-76.21
X142.0Y-79.21
X145.0Y-76.21
X145.0Y-79.21
X148.0Y-76.21
X148.0Y-79.21
T4
X107.8Y-74.5
X112.5Y-71.5
X112.5Y-77.5
T5
X100.33Y-112.19
X100.4Y-71.03
X138.15Y-71.89
X145.85Y-71.89
X159.87Y-69.63
X162.87Y-122.72
M30
