%TF.GenerationSoftware,KiCad,Pcbnew,9.0.4*%
%TF.CreationDate,2025-11-21T16:36:12+01:00*%
%TF.ProjectId,dryer_filament,64727965-725f-4666-996c-616d656e742e,rev?*%
%TF.SameCoordinates,Original*%
%TF.FileFunction,Copper,L2,Bot*%
%TF.FilePolarity,Positive*%
%FSLAX46Y46*%
G04 Gerber Fmt 4.6, Leading zero omitted, Abs format (unit mm)*
G04 Created by KiCad (PCBNEW 9.0.4) date 2025-11-21 16:36:12*
%MOMM*%
%LPD*%
G01*
G04 APERTURE LIST*
%TA.AperFunction,HeatsinkPad*%
%ADD10C,0.600000*%
%TD*%
%TA.AperFunction,ComponentPad*%
%ADD11R,2.600000X2.600000*%
%TD*%
%TA.AperFunction,ComponentPad*%
%ADD12C,2.600000*%
%TD*%
%TA.AperFunction,ComponentPad*%
%ADD13C,1.530000*%
%TD*%
%TA.AperFunction,ViaPad*%
%ADD14C,0.600000*%
%TD*%
%TA.AperFunction,Conductor*%
%ADD15C,0.200000*%
%TD*%
G04 APERTURE END LIST*
D10*
%TO.P,U1,39,GND*%
%TO.N,GND*%
X148025000Y-118762500D03*
X148025000Y-117237500D03*
X147262500Y-119525000D03*
X147262500Y-118000000D03*
X147262500Y-116475000D03*
X146500000Y-118762500D03*
X146500000Y-117237500D03*
X145737500Y-119525000D03*
X145737500Y-118000000D03*
X145737500Y-116475000D03*
X144975000Y-118762500D03*
X144975000Y-117237500D03*
%TD*%
D11*
%TO.P,J4,1*%
%TO.N,+12V*%
X112500000Y-77500000D03*
D12*
%TO.P,J4,2*%
%TO.N,GND*%
X112500000Y-71500000D03*
%TO.P,J4,3*%
%TO.N,unconnected-(J4-Pad3)*%
X107800000Y-74500000D03*
%TD*%
D13*
%TO.P,J3,1,Pin_1*%
%TO.N,+12V*%
X136000000Y-79210000D03*
%TO.P,J3,2,Pin_2*%
X136000000Y-76210000D03*
%TO.P,J3,3,Pin_3*%
%TO.N,+5V*%
X139000000Y-79210000D03*
%TO.P,J3,4,Pin_4*%
%TO.N,+12V*%
X139000000Y-76210000D03*
%TO.P,J3,5,Pin_5*%
%TO.N,/04_controle_fan_resistor/- RES*%
X142000000Y-79210000D03*
%TO.P,J3,6,Pin_6*%
X142000000Y-76210000D03*
%TO.P,J3,7,Pin_7*%
%TO.N,/03_microcontroleur/SDA_sensor*%
X145000000Y-79210000D03*
%TO.P,J3,8,Pin_8*%
%TO.N,/03_microcontroleur/SCL_sensor*%
X145000000Y-76210000D03*
%TO.P,J3,9,Pin_9*%
%TO.N,GND*%
X148000000Y-79210000D03*
%TO.P,J3,10,Pin_10*%
%TO.N,/04_controle_fan_resistor/- FAN*%
X148000000Y-76210000D03*
%TD*%
D14*
%TO.N,+3.3V*%
X159500000Y-123962500D03*
X153000000Y-124070000D03*
X135000000Y-122500000D03*
%TO.N,/03_microcontroleur/SDA_sensor*%
X156000000Y-119000000D03*
%TO.N,/03_microcontroleur/SCL_sensor*%
X160000000Y-117500000D03*
%TO.N,/03_microcontroleur/EN_FAN*%
X156750000Y-85990000D03*
X140174265Y-105674265D03*
%TO.N,/03_microcontroleur/TXD0*%
X135000000Y-121500000D03*
X114405000Y-121500000D03*
%TO.N,/03_microcontroleur/RXD0*%
X117500000Y-120500000D03*
X135000000Y-120500000D03*
%TO.N,+3.3V*%
X158500000Y-109000000D03*
%TD*%
D15*
%TO.N,/03_microcontroleur/EN_FAN*%
X153859000Y-104401000D02*
X141447530Y-104401000D01*
X154960000Y-103300000D02*
X153859000Y-104401000D01*
X154960000Y-86830000D02*
X154960000Y-103300000D01*
X141447530Y-104401000D02*
X140174265Y-105674265D01*
X155800000Y-85990000D02*
X154960000Y-86830000D01*
X156750000Y-85990000D02*
X155800000Y-85990000D01*
%TO.N,/03_microcontroleur/RXD0*%
X117510000Y-120510000D02*
X134990000Y-120510000D01*
X117500000Y-120500000D02*
X117510000Y-120510000D01*
X134990000Y-120510000D02*
X135000000Y-120500000D01*
%TO.N,+3.3V*%
X158500000Y-119000000D02*
X158500000Y-109000000D01*
X159500000Y-120000000D02*
X158500000Y-119000000D01*
X159500000Y-123962500D02*
X159500000Y-120000000D01*
%TO.N,/03_microcontroleur/SCL_sensor*%
X146290000Y-77500000D02*
X145000000Y-76210000D01*
X158000000Y-77500000D02*
X146290000Y-77500000D01*
X161601000Y-116399000D02*
X161601000Y-81101000D01*
X160500000Y-117500000D02*
X161601000Y-116399000D01*
X160000000Y-117500000D02*
X160500000Y-117500000D01*
X161601000Y-81101000D02*
X158000000Y-77500000D01*
%TO.N,/03_microcontroleur/SDA_sensor*%
X157500000Y-113500000D02*
X156000000Y-115000000D01*
X157500000Y-81500000D02*
X157500000Y-113500000D01*
X156500000Y-80500000D02*
X157500000Y-81500000D01*
X156000000Y-115000000D02*
X156000000Y-119000000D01*
X146290000Y-80500000D02*
X156500000Y-80500000D01*
X145000000Y-79210000D02*
X146290000Y-80500000D01*
%TO.N,+3.3V*%
X153000000Y-124070000D02*
X152930000Y-124000000D01*
X135000000Y-123500000D02*
X135000000Y-122500000D01*
X135500000Y-124000000D02*
X135000000Y-123500000D01*
X152930000Y-124000000D02*
X135500000Y-124000000D01*
%TO.N,/03_microcontroleur/TXD0*%
X114405000Y-121500000D02*
X135000000Y-121500000D01*
%TD*%
M02*
